<?xml version="1.0" standalone="no"?>
<!DOCTYPE svg PUBLIC "-//W3C//DTD SVG 20010904//EN"
 "http://www.w3.org/TR/2001/REC-SVG-20010904/DTD/svg10.dtd">
<svg version="1.0" xmlns="http://www.w3.org/2000/svg"
 width="512.000000pt" height="512.000000pt" viewBox="0 0 512.000000 512.000000"
 preserveAspectRatio="xMidYMid meet">

<g transform="translate(0.000000,512.000000) scale(0.100000,-0.100000)"
fill="#000000" stroke="none">
<path d="M466 4949 c-62 -15 -153 -68 -197 -116 -22 -24 -55 -74 -72 -111
l-32 -67 0 -1776 0 -1775 37 -76 c64 -129 182 -212 321 -225 61 -5 67 -4 91
20 51 51 17 137 -55 137 -91 0 -202 81 -227 166 -17 60 -17 3448 0 3508 16 55
99 138 154 154 59 17 1689 17 1748 0 55 -16 138 -99 154 -154 9 -31 12 -266
12 -953 l0 -912 25 -24 c32 -33 78 -33 111 0 l24 25 -2 943 -3 943 -37 76
c-45 91 -103 147 -196 191 l-67 32 -875 2 c-508 1 -891 -3 -914 -8z"/>
<path d="M3170 4723 c-21 -9 -332 -251 -352 -275 -37 -42 -25 -67 113 -244 72
-93 139 -175 147 -181 23 -19 76 -16 103 6 16 13 23 29 23 53 0 29 -14 53 -73
127 -41 51 -71 94 -68 97 7 8 187 -32 274 -61 489 -163 860 -589 958 -1103 10
-51 15 -95 12 -98 -3 -4 -46 19 -95 50 -105 66 -147 73 -181 30 -27 -34 -27
-67 2 -98 21 -23 316 -212 370 -237 53 -24 74 -3 200 198 127 202 137 231 94
271 -26 24 -74 29 -99 10 -9 -7 -41 -53 -72 -102 -47 -76 -56 -85 -60 -65 -3
13 -13 62 -22 109 -30 154 -104 344 -189 486 -239 394 -627 669 -1066 753
l-93 17 75 59 c91 72 99 81 99 121 0 53 -55 95 -100 77z"/>
<path d="M1065 4615 c-16 -15 -25 -36 -25 -55 0 -19 9 -40 25 -55 l24 -25 271
0 271 0 24 25 c16 15 25 36 25 55 0 19 -9 40 -25 55 l-24 25 -271 0 -271 0
-24 -25z"/>
<path d="M1106 2549 c-62 -15 -153 -68 -197 -116 -22 -24 -55 -74 -72 -111
l-32 -67 0 -895 0 -895 32 -67 c44 -93 100 -151 191 -196 l76 -37 1776 0 1776
0 76 37 c91 45 147 103 191 196 l32 67 0 895 0 895 -32 67 c-44 93 -100 151
-191 196 l-76 37 -1755 2 c-1038 0 -1772 -3 -1795 -8z m3528 -161 c55 -16 138
-99 154 -154 17 -59 17 -1689 0 -1748 -16 -55 -99 -138 -154 -154 -60 -17
-3448 -17 -3508 0 -55 16 -138 99 -154 154 -17 59 -17 1689 0 1748 15 51 99
137 148 153 53 17 3458 17 3514 1z"/>
<path d="M4505 1655 l-25 -24 0 -271 0 -271 25 -24 c32 -33 78 -33 110 0 l25
24 0 271 0 271 -25 24 c-15 16 -36 25 -55 25 -19 0 -40 -9 -55 -25z"/>
</g>
</svg>
