<svg width="687" height="420" viewBox="0 0 687 420" fill="none" xmlns="http://www.w3.org/2000/svg">
<path d="M278.013 275.321L306.657 303.965C234.774 299.881 171.333 284.007 125.245 261.548C100.832 249.651 81.4872 236.004 68.3083 221.469C55.1422 206.948 48.3333 191.788 48.3333 176.667C48.3333 160.778 55.8547 144.838 70.3658 129.655C84.8841 114.464 106.147 100.319 132.846 88.2131C186.227 64.0083 260.498 48.3333 343.333 48.3333C426.169 48.3333 500.44 64.0083 553.821 88.2131C580.52 100.319 601.783 114.464 616.301 129.655C630.812 144.838 638.333 160.778 638.333 176.667C638.333 192.044 631.071 207.997 616.331 223.47C601.586 238.949 579.594 253.674 550.883 266.401C539.944 271.251 535.007 284.05 539.856 294.99C544.706 305.929 557.505 310.866 568.445 306.017C637.953 275.204 681.667 229.795 681.667 176.667C681.667 126.043 641.866 83.0779 580.822 53.0552C519.521 22.9066 435.396 5 343.333 5C251.271 5 167.145 22.9066 105.845 53.0552C44.8008 83.0779 5 126.043 5 176.667C5 225.137 41.5067 266.594 98.1275 296.354C152.444 324.904 226.401 343.381 308.553 347.473L278.013 378.013C269.551 386.474 269.551 400.193 278.013 408.654C286.474 417.115 300.193 417.115 308.654 408.654L375.321 341.987C383.782 333.526 383.782 319.807 375.321 311.346L308.654 244.679C300.193 236.218 286.474 236.218 278.013 244.679C269.551 253.141 269.551 266.859 278.013 275.321Z" fill="black" stroke="black" stroke-width="10"/>
</svg>
